<svg width="295" height="295" viewBox="0 0 295 295" fill="none" xmlns="http://www.w3.org/2000/svg">
<g clip-path="url(#clip0_10_819)">
<mask id="mask0_10_819" style="mask-type:luminance" maskUnits="userSpaceOnUse" x="0" y="0" width="295" height="295">
<path d="M295 0H0V295H295V0Z" fill="white"/>
</mask>
<g mask="url(#mask0_10_819)">
<path d="M175.802 113.115C175.944 117.737 170.369 127.046 166.227 127.173C162.089 127.301 160.953 118.198 160.811 113.576C160.669 108.955 163.908 105.109 168.046 104.982C172.187 104.855 175.659 108.493 175.802 113.115Z" fill="#343434"/>
<path d="M162.803 116.794C162.803 116.794 173.291 107.613 165.847 88.4148C161.005 75.922 135.874 112.671 162.803 116.794Z" fill="#343434"/>
<path d="M135.31 95.7627C136.279 88.1379 143.443 75.2185 157.106 82.6129C161.404 84.9416 163.339 89.364 164.34 93.9917C165.039 97.2162 164.873 133 164.873 133C164.129 145.811 145.033 145.569 143.895 130.034L144.357 119.358C134.537 116.534 134.224 104.323 135.31 95.7627Z" fill="#FBC3A7"/>
<path d="M144.357 119.358C144.357 119.358 149.906 121.026 160.069 114.268C160.069 114.268 154.507 122.971 144.075 126.782L144.357 119.358Z" fill="#B87A77"/>
<path d="M170.644 98.4779C171.249 100.673 169.958 102.946 167.763 103.551C165.565 104.154 163.293 102.866 162.687 100.67C162.082 98.4725 163.373 96.2027 165.568 95.5973C167.763 94.9918 170.038 96.2827 170.644 98.4779Z" fill="#FBC3A7"/>
<path d="M164.788 100.782C164.815 100.347 164.982 99.9452 165.226 99.5927C165.473 99.2346 165.822 98.9278 166.27 98.7402C166.721 98.5579 167.281 98.5814 167.696 98.7995C168.128 98.9954 168.411 99.3588 168.58 99.7447C168.153 99.6302 167.815 99.4912 167.483 99.4689C167.158 99.4381 166.882 99.4629 166.601 99.5829C166.029 99.807 165.479 100.286 164.788 100.782Z" fill="#343434"/>
<path d="M142.782 109.321C143.31 109.53 143.741 109.78 144.178 109.938C144.61 110.107 145.007 110.211 145.381 110.194C145.756 110.185 146.129 110.063 146.536 109.86C146.94 109.655 147.347 109.365 147.815 109.06C147.74 109.619 147.485 110.138 147.074 110.558C146.679 110.983 146.073 111.308 145.413 111.323C144.754 111.344 144.147 111.061 143.72 110.685C143.269 110.322 142.966 109.845 142.782 109.321Z" fill="#343434"/>
<path d="M144.353 93.6345C144.489 94.1056 144.445 94.6204 144.338 95.099C144.228 95.5859 144.03 96.0429 143.804 96.4736C143.336 97.3355 142.743 98.0899 142.022 98.7505L141.933 98.1692C142.754 98.7035 143.559 99.26 144.31 99.916C143.355 99.6194 142.458 99.2314 141.57 98.8187L141.168 98.6328L141.482 98.2347C141.756 97.8867 142.027 97.5089 142.299 97.1502C142.564 96.778 142.838 96.4137 143.085 96.0394C143.588 95.2851 144.066 94.556 144.353 93.6345Z" fill="#343434"/>
<path d="M148.923 94.7352C148.923 95.455 148.962 96.2008 149.092 96.8704C149.216 97.543 149.511 98.1451 149.886 98.2232C150.221 98.3595 150.784 98.0027 151.246 97.5022C151.706 97.0046 152.141 96.4017 152.53 95.8057L152.541 95.7918C152.65 95.6228 152.871 95.5752 153.037 95.6842C153.181 95.7775 153.236 95.9524 153.181 96.1062C152.91 96.8561 152.56 97.5514 152.042 98.1976C151.783 98.5152 151.482 98.8205 151.08 99.0692C150.691 99.3094 150.095 99.4771 149.552 99.2928C149.014 99.122 148.62 98.6805 148.431 98.2625C148.231 97.8395 148.147 97.4156 148.11 97.0066C148.038 96.1857 148.132 95.4169 148.322 94.6477C148.364 94.4835 148.529 94.3833 148.69 94.4245C148.83 94.4555 148.923 94.583 148.922 94.7216L148.923 94.7352Z" fill="#343434"/>
<path d="M137.442 93.7983C137.438 94.4775 137.454 95.1751 137.529 95.822C137.574 96.1439 137.63 96.4572 137.73 96.7122C137.83 96.978 137.962 97.0989 138.029 97.0941C138.074 97.1172 138.262 97.0625 138.474 96.8713C138.685 96.6937 138.884 96.4431 139.077 96.1845C139.458 95.6594 139.817 95.0616 140.155 94.4754L140.165 94.4642C140.266 94.2927 140.484 94.2343 140.655 94.3323C140.802 94.4174 140.864 94.5893 140.82 94.7428C140.619 95.4552 140.352 96.1263 139.956 96.7713C139.76 97.0952 139.53 97.4065 139.219 97.7013C139.058 97.8475 138.872 97.9891 138.633 98.0942C138.395 98.202 138.071 98.2636 137.764 98.1807C137.46 98.1086 137.196 97.9102 137.035 97.7006C136.871 97.4884 136.775 97.2713 136.711 97.0668C136.587 96.6523 136.548 96.2651 136.545 95.8876C136.537 95.1273 136.649 94.4122 136.841 93.7C136.885 93.5384 137.053 93.4435 137.215 93.4902C137.352 93.524 137.443 93.6462 137.441 93.782L137.442 93.7983Z" fill="#343434"/>
<path d="M153.683 91.6061C153.618 92.1378 152.795 92.4755 151.846 92.3553C150.894 92.2352 150.18 91.7058 150.245 91.1741C150.31 90.637 151.136 90.2992 152.085 90.4194C153.034 90.5395 153.748 91.0717 153.683 91.6061Z" fill="#343434"/>
<path d="M140.504 90.0234C140.704 90.5252 140.146 91.2106 139.258 91.5476C138.366 91.8874 137.485 91.7543 137.282 91.2526C137.082 90.7481 137.639 90.0654 138.531 89.7283C139.419 89.3886 140.304 89.5216 140.504 90.0234Z" fill="#343434"/>
<path d="M137.965 87.7791C137.965 87.7791 146.216 89.2962 157.106 82.6129C157.106 82.6129 153.762 104.303 164.278 96.221C164.278 96.221 165.738 95.0298 167.356 95.458L167.787 95.5833C167.787 95.5833 166.736 80.9555 157.628 78.123C148.522 75.2876 137.579 77.784 137.965 87.7791Z" fill="#343434"/>
<path d="M221.689 136.982C218.209 140.594 213.407 143.666 208.872 146.058C206.758 141.054 204.805 135.991 203.157 130.834C206.782 129.532 210.662 127.551 214.133 124.387C219.408 119.576 225.095 103.772 226.499 99.694C226.568 99.4807 226.638 99.2672 226.706 99.0539L226.691 99.0498C226.691 99.0498 227.632 94.8449 227.748 94.2136C228.041 92.6298 228.128 88.8032 228.128 88.8032C228.128 88.8032 229.181 88.2814 229.728 90.7842C230.273 93.2892 230.603 92.4753 230.603 92.4753C230.603 92.4753 234.209 84.9203 235.565 85.0237C236.07 85.065 235.794 86.7121 235.142 87.7322C234.49 88.748 233.883 90.2798 233.883 90.2798C233.883 90.2798 237.655 84.6978 238.939 85.1096C238.939 85.1096 239.59 85.4057 238.367 87.0784C236.672 89.3982 235.631 91.4378 235.631 91.4378C235.631 91.4378 239.608 86.8486 240.241 87.0814C241.295 87.4642 237.271 92.1403 236.782 93.6286C236.782 93.6286 239.723 89.9433 240.041 90.813C240.347 91.6455 236.95 95.5766 235.833 100.349C235.765 100.811 235.674 101.343 235.557 101.937L235.559 101.935C235.559 101.935 233.99 124.21 221.689 136.982Z" fill="#FBC3A7"/>
<path d="M231.933 106.98C234.364 108.532 235.558 111.432 234.904 114.242C233.081 122.086 228.837 137.449 222.629 142.641C216.581 147.67 199.995 149.125 190.995 149.545C187.995 149.686 181.779 150.177 180.787 147.34L176.983 143.082C172.694 139.672 175.315 130.176 180.48 128.337C184.503 127.58 197.466 128.945 206.15 127.401C206.132 127.403 206.111 127.406 206.115 127.428C205.976 127.612 207.401 128.683 208.545 130.494C209.717 132.242 210.114 133.997 210.354 133.963C210.455 133.948 210.492 133.491 210.346 132.751C210.22 132.008 209.852 131.009 209.242 130.045C208.608 129.068 207.852 128.353 207.236 127.927C206.71 127.551 206.293 127.38 206.15 127.401C206.611 127.317 207.054 127.235 207.469 127.133C207.503 127.375 208.965 127.681 210.626 128.372C212.327 129.056 213.601 129.882 213.739 129.698C213.878 129.534 212.764 128.352 210.931 127.607C209.819 127.146 208.785 126.987 208.145 126.975C209.674 126.593 211.004 126.096 212.036 125.415C215.952 122.847 219.628 115.656 222.041 110.008C223.688 106.159 228.403 104.728 231.933 106.98Z" fill="#EE9729"/>
<path d="M210.346 132.749C210.492 133.489 210.454 133.946 210.354 133.961C210.112 133.995 209.719 132.244 208.545 130.496C207.404 128.684 205.976 127.612 206.115 127.428C206.111 127.406 206.132 127.405 206.152 127.402C206.293 127.382 206.708 127.55 207.234 127.925C207.85 128.352 208.61 129.07 209.242 130.047C209.852 131.011 210.22 132.006 210.346 132.749Z" fill="#F05841"/>
<path d="M213.739 129.696C213.6 129.88 212.331 129.053 210.63 128.37C208.969 127.678 207.507 127.372 207.473 127.13C207.714 127.096 207.934 127.046 208.15 126.975C208.789 126.986 209.819 127.146 210.933 127.607C212.766 128.352 213.88 129.532 213.739 129.696Z" fill="#F05841"/>
<path d="M210.354 133.961C210.112 133.995 209.719 132.242 208.545 130.494C207.403 128.682 205.976 127.612 206.115 127.428C206.112 127.408 206.132 127.405 206.152 127.402C206.293 127.382 206.708 127.55 207.234 127.927C207.85 128.354 208.61 129.068 209.242 130.047C209.852 131.009 210.22 132.006 210.346 132.749C210.492 133.489 210.454 133.946 210.354 133.961Z" fill="#343434"/>
<path d="M213.739 129.696C213.6 129.88 212.331 129.053 210.63 128.37C208.969 127.678 207.507 127.372 207.473 127.13L207.47 127.112C207.479 127.029 207.738 126.971 208.15 126.975C208.789 126.986 209.819 127.146 210.933 127.607C212.766 128.352 213.88 129.532 213.739 129.696Z" fill="#343434"/>
<path d="M92.6068 144.544L95.7052 134.934L102.873 137.376L102.547 145.688L92.6068 144.544Z" fill="#FBC3A7"/>
<path d="M131.914 126.378C134.558 126.571 136.254 129.272 135.283 131.737L129.789 145.686L126.279 153.448C117.59 162.608 101.748 177.669 91.6252 177.669C85.7646 177.669 81.4019 163.079 91.2584 144.266L92.6498 144.432L102.549 145.639L103.676 145.784L103.349 146.911V146.932L101.402 153.858C101.566 153.653 101.728 153.448 101.871 153.241C104.638 149.655 107.283 146.358 109.64 143.448C110.357 142.608 111.01 141.788 111.666 141.009C115.908 135.845 119.002 132.3 119.986 131.255C124.371 126.684 129.107 126.153 131.914 126.399V126.378Z" fill="#FAA73D"/>
<path d="M98.8035 162.518C98.5883 162.464 99.3568 158.733 100.726 154.249C102.09 149.757 103.535 146.237 103.742 146.313C103.959 146.388 102.865 150.018 101.506 154.489C100.144 158.954 99.0248 162.575 98.8035 162.518Z" fill="#343434"/>
<path d="M101.426 127.223C102.013 126.606 103.73 124.729 103.736 123.889C103.744 122.405 101.222 125.069 100.127 126.298C100.586 126.591 101.033 126.897 101.426 127.223Z" fill="#F8A380"/>
<path d="M90.8363 115.03C91.1929 114.249 92.2257 114.077 92.8117 114.704C95.5207 117.587 101.594 124.841 104.648 129.755C108.976 136.72 111.842 141.286 111.842 141.286L124.512 152.229C124.512 152.229 119.156 155.163 114.402 150.909C110.803 147.69 109.129 141.993 109.129 141.993C109.129 141.993 98.1068 122.194 91.158 116.45C90.7379 116.104 90.6109 115.524 90.8363 115.03Z" fill="#23036A"/>
<path d="M95.8506 139.95C95.074 136.827 95.0166 131.766 94.9797 129.874C94.947 128.206 96.031 127.481 96.7297 127.079C99.615 125.415 105.48 124.21 105.699 125.032C105.877 125.704 100.814 127.343 100.814 127.343C100.814 127.343 107.115 126.307 105.875 127.741C105.213 128.505 101.672 128.805 101.672 128.805C101.672 128.805 105.517 129.21 105.224 129.774C104.701 130.774 101.539 130.636 101.539 130.636C101.539 130.636 103.06 131.915 103.502 135.151C103.824 137.503 98.9982 142.186 98.9982 142.186L95.8506 139.95Z" fill="#FBC3A7"/>
<path d="M98.5146 131.313C98.4777 131.171 99.1642 130.88 100.051 130.813C100.49 130.772 100.885 130.788 101.127 130.768C101.367 130.761 101.467 130.667 101.547 130.692C101.578 130.708 101.59 130.768 101.547 130.864C101.506 130.964 101.388 131.069 101.234 131.136C100.924 131.274 100.527 131.313 100.099 131.356C99.2482 131.421 98.5515 131.462 98.5146 131.313Z" fill="#343434"/>
<path d="M169.805 190.467L198.883 262.273L108.043 266.021L105.568 264.646C105.244 265.033 128.521 183.111 128.197 183.498C127.995 183.713 128.4 183.244 128.197 183.498L125.617 127.587C125.941 127.454 126.224 127.368 126.548 127.282C129.425 126.34 129.275 126.035 131.543 126.035C132.353 126.035 133.083 126.078 133.771 126.121L142.793 127.028C143.684 130.377 145.078 136.116 154.273 137.019C160.714 137.66 168.148 129.977 168.33 129.534L174.585 126.71L186.365 127.398L169.643 188.833C168.427 188.661 170.412 188.924 169.643 188.833L169.805 190.467Z" fill="#EC7257"/>
<path d="M128.665 152.809L169.53 152.007L173.535 221.719L201.581 273.802L115.482 274.471L118.704 230.514L128.665 152.809Z" fill="#613BB5"/>
<path d="M128.665 152.809L169.53 152.007L173.535 221.719L201.581 273.802L115.482 274.471L118.704 230.514L128.665 152.809Z" fill="#613BB5"/>
<path d="M169.151 152.034C168.475 151.956 168.937 145.47 170.953 137.673C172.954 129.871 175.717 123.825 176.371 123.999C177.05 124.178 175.395 130.436 173.42 138.142C171.426 145.842 169.855 152.118 169.151 152.034Z" fill="#343434"/>
<path d="M141.588 121.226C141.859 121.461 140.4 122.844 139.035 125.513C137.615 128.148 136.431 132.146 134.964 136.558C132.064 145.356 129.915 152.559 129.214 152.449C128.542 152.345 129.597 144.888 132.53 135.984C134.004 131.572 135.484 127.51 137.449 124.817C139.364 122.102 141.401 121.021 141.588 121.226Z" fill="#343434"/>
<path d="M195.806 232.32C195.698 231.945 199.248 230.865 204.507 228.264C205.789 227.607 207.162 226.827 208.224 225.714C208.487 225.436 208.729 225.14 208.935 224.818C209.141 224.508 209.351 224.125 209.416 223.883C209.488 223.616 209.416 223.594 209.408 223.58C209.423 223.576 209.242 223.475 208.935 223.464C208.632 223.453 208.26 223.518 207.935 223.641C207.606 223.775 207.144 224.002 206.757 224.233C205.948 224.706 205.146 225.302 204.308 225.945C202.604 227.253 200.848 228.607 199.042 229.987C198.779 230.189 198.515 230.388 198.273 230.572L196.575 228.719C199.472 225.566 201.607 222.03 203.033 218.62L203.293 217.981C203.38 217.764 203.474 217.548 203.503 217.439C203.546 217.309 203.55 217.183 203.554 217.205C203.535 217.215 203.673 217.479 203.835 217.515C204.034 217.584 204.103 217.512 204.019 217.54C203.944 217.569 203.835 217.627 203.68 217.743C203.351 217.988 203.019 218.216 202.719 218.48C201.491 219.487 200.491 220.632 199.653 221.741C197.984 223.977 196.89 226.032 196.073 227.412C195.268 228.802 194.766 229.557 194.607 229.489C194.452 229.416 194.654 228.535 195.199 227.004C195.756 225.479 196.615 223.269 198.208 220.737C199.01 219.476 200.021 218.147 201.358 216.923C201.679 216.605 202.047 216.32 202.412 216.02C202.596 215.868 202.867 215.684 203.203 215.54C203.528 215.399 204.074 215.236 204.698 215.493C205.287 215.702 205.706 216.388 205.75 216.854C205.822 217.335 205.757 217.678 205.685 217.999C205.598 218.342 205.508 218.552 205.432 218.783L205.175 219.476C203.777 223.179 201.549 227.022 198.439 230.424L196.745 228.568C196.987 228.38 197.251 228.181 197.515 227.979C199.328 226.61 201.101 225.273 202.813 223.977C203.68 223.334 204.583 222.68 205.565 222.138C206.075 221.86 206.53 221.626 207.144 221.402C207.772 221.192 208.401 221.102 209.083 221.142C209.737 221.207 210.589 221.394 211.2 222.171C211.796 222.922 211.767 223.966 211.529 224.569C211.301 225.212 211.008 225.624 210.705 226.057C210.402 226.483 210.055 226.859 209.697 227.199C208.253 228.553 206.656 229.29 205.255 229.886C199.613 232.154 195.878 232.616 195.806 232.32Z" fill="#343434"/>
<path d="M225.72 248.819C225.514 248.74 226.012 247.779 225.716 246.128C225.42 244.521 224.029 242.26 221.429 240.754C220.172 240.032 218.507 239.522 216.726 239.179C214.927 238.832 212.934 238.663 210.788 238.478C208.657 238.276 206.317 238.078 203.929 237.384C201.571 236.694 199.115 235.596 197.124 233.617C196.095 232.591 195.272 231.327 194.798 230.019L194.672 229.665L194.773 229.236C194.914 228.618 195.542 227.972 196.146 227.816C196.749 227.625 197.258 227.683 197.71 227.809C198.161 227.943 198.573 228.163 198.938 228.513C199.302 228.853 199.62 229.373 199.689 229.976C199.804 231.092 199.241 231.959 198.605 232.486C197.955 233.014 197.226 233.267 196.471 233.346C194.838 233.447 193.711 232.689 192.815 232.053C191.931 231.381 191.233 230.774 190.471 230.164C187.495 227.737 184.794 225.7 182.359 224.287C177.49 221.43 173.915 221.058 173.99 220.654C174.005 220.517 174.911 220.423 176.53 220.658C178.148 220.881 180.485 221.499 183.154 222.792C185.83 224.074 188.767 226.054 191.855 228.398C193.386 229.503 195.084 231.125 196.24 230.94C196.532 230.904 196.846 230.774 197.027 230.608C197.121 230.529 197.179 230.449 197.204 230.384C197.218 230.355 197.226 230.326 197.233 230.298C197.233 230.283 197.229 230.269 197.236 230.254V230.247V230.243C197.204 230.243 197.54 230.254 197.399 230.247L197.421 230.251C197.428 230.247 197.384 230.254 197.298 230.301C197.204 230.366 197.269 230.316 197.226 230.312C197.193 230.28 197.106 230.233 197.023 230.207C196.98 230.2 196.947 230.196 196.926 230.193C196.915 230.189 196.919 230.215 196.908 230.182C196.897 230.103 196.893 230.045 196.861 229.969C196.767 229.687 196.651 229.774 196.98 229.875L197.157 229.153C197.511 230.11 198.121 231.038 198.923 231.836C200.458 233.378 202.542 234.372 204.637 235.011C206.728 235.658 208.906 235.9 211.037 236.163C215.27 236.629 219.377 237.272 222.371 239.241C225.301 241.22 226.655 244.033 226.691 246.027C226.695 248.064 225.803 248.899 225.72 248.819Z" fill="#343434"/>
<path d="M134.346 231.662C134.346 231.662 151.352 221.823 134.832 204.956C118.312 188.088 144.55 179.655 144.55 179.655" stroke="white" stroke-width="2" stroke-linecap="round" stroke-dasharray="257.03 257.03"/>
<path d="M284.203 272.914H20.4484V266.372H284.203V272.914Z" fill="#F0CD55"/>
<path d="M101.586 259.708H209.663V266.573H101.586V259.708Z" fill="#343434"/>
<path d="M111.816 223.601C111.976 223.43 113.053 225.874 114.614 230.038L114.966 230.967L113.96 230.8C110.91 230.287 107.158 229.21 103.258 227.523C102.095 227.022 100.78 226.331 100.074 225.042C99.7211 224.414 99.5428 223.638 99.6914 222.895C99.8288 222.148 100.293 221.498 100.869 221.104C101.445 220.696 102.117 220.569 102.723 220.551L103.172 220.558L103.54 220.584C103.789 220.603 104.034 220.629 104.275 220.647C105.286 220.725 106.233 221 107.006 221.279C108.57 221.851 109.769 222.412 110.594 222.817C111.475 223.251 111.898 223.538 111.816 223.601C111.735 223.664 111.218 223.578 110.39 223.359C109.417 223.073 108.18 222.709 106.694 222.275C105.91 222.066 105.111 221.892 104.194 221.873C103.956 221.866 103.711 221.855 103.466 221.847L103.083 221.832L102.771 221.847C102.37 221.881 101.957 221.977 101.656 222.223C101.029 222.676 100.862 223.549 101.337 224.329C101.79 225.142 102.745 225.7 103.844 226.164C107.634 227.809 111.304 228.976 114.164 229.656L113.51 230.414C112.325 226.468 111.657 223.768 111.816 223.601Z" fill="#343434"/>
<path d="M182.898 223.601C183.058 223.768 182.385 226.468 181.204 230.414L180.547 229.656C183.407 228.976 187.07 227.809 190.855 226.171C191.145 226.052 191.416 225.93 191.65 225.804C191.91 225.688 192.129 225.536 192.348 225.387C192.779 225.087 193.151 224.734 193.366 224.34C193.849 223.56 193.693 222.694 193.069 222.234C192.445 221.747 191.553 221.803 190.614 221.936C189.696 222.063 188.838 222.252 188.05 222.434C184.908 223.192 182.972 223.805 182.898 223.601C182.827 223.419 184.629 222.46 187.772 221.424C188.559 221.175 189.432 220.919 190.409 220.729C190.918 220.644 191.382 220.532 192.021 220.551C192.627 220.577 193.296 220.718 193.868 221.127C194.44 221.524 194.897 222.178 195.03 222.921C195.172 223.668 194.986 224.44 194.625 225.061C193.92 226.342 192.597 227.033 191.442 227.531C187.545 229.214 183.797 230.287 180.755 230.8L179.748 230.974L180.097 230.038C181.661 225.874 182.738 223.43 182.898 223.601Z" fill="#343434"/>
<path d="M147.931 259.805C128.105 259.805 112.024 243.731 112.024 223.902V216.847H183.83V223.902C183.83 243.731 167.757 259.805 147.931 259.805Z" fill="#96C6C7"/>
<path d="M184.154 217.724H111.463V216.223H184.154V217.724Z" fill="#DAF0F3"/>
<path d="M48.8551 199.522H78.5731V257.011H48.8551V199.522Z" fill="#B3DFD9"/>
<path d="M76.5745 255.562H50.8499V217.709H76.5745V255.562Z" fill="#CCE9E6"/>
<path d="M52.3915 236.97L74.7766 207.713" stroke="#CCE9E6" stroke-width="16.3827" stroke-miterlimit="10" stroke-linecap="round"/>
<path d="M52.4733 230.863L72.0648 204.577" stroke="#CCE9E6" stroke-width="16.3827" stroke-miterlimit="10" stroke-linecap="round"/>
<path d="M46.9271 213.333C46.9271 213.333 43.0378 205.517 41.5296 198.939C40.6492 195.097 36.6447 178.013 35.2294 180.101C33.8141 182.181 36.7673 191.962 38.1603 196.412C39.2822 200.001 43.0675 210.714 43.0675 210.714C43.0675 210.714 32.0459 189.05 28.6952 188.604C25.3407 188.155 31.0094 196.427 32.1462 198.114C35.9389 203.738 38.4687 207.393 41.8008 211.684C41.8008 211.684 18.4165 188.935 15.9759 192.304C13.5353 195.67 24.869 200.406 30.1551 204.31C34.2078 207.308 42.9709 214.574 42.9709 214.574C42.9709 214.574 41.7153 212.471 37.1908 209.507C30.3779 205.046 18.513 199.629 17.8147 201.925C16.8637 205.042 23.5019 206.104 29.1781 208.285C41.8231 213.144 43.2904 217.568 43.2904 217.568L46.9271 213.333Z" fill="#017374"/>
<path d="M51.6671 213.63C51.6671 213.63 48.4353 209.061 43.1009 212.839C37.7666 216.617 41.1544 223.37 42.7963 225.224C44.4382 227.078 59.3492 242.49 61.3441 246.257C63.3389 250.024 70.0366 260.065 72.2097 259.281C74.3791 258.493 72.726 255.878 71.8419 249.329C70.9541 242.78 67.9154 235.592 63.9629 230.74C60.0105 225.896 51.6671 213.63 51.6671 213.63Z" fill="#EE9729"/>
<path d="M53.7957 217.423C50.9019 218.251 48.9962 220.9 45.939 221.361C45.0103 221.498 45.4078 222.906 46.3291 222.761C49.3529 222.308 51.6449 219.953 54.2786 218.575C54.9138 218.24 54.4792 217.226 53.7957 217.423Z" fill="#D86D43"/>
<path d="M58.5803 223.972C57.4399 224.228 56.4072 225.012 55.419 225.622C54.3269 226.294 53.2459 226.974 52.1575 227.65C51.3514 228.148 52.0869 229.422 52.893 228.917C53.9777 228.237 55.0699 227.561 56.1546 226.873C57.139 226.257 58.3091 225.674 59.0446 224.763C59.3344 224.403 59.0669 223.864 58.5803 223.972Z" fill="#D86D43"/>
<path d="M64.145 231.792C63.0789 232.393 62.0907 233.133 61.0803 233.824C60.1293 234.47 59.1115 235.076 58.246 235.837C57.6442 236.368 58.4206 237.319 59.0929 236.933C60.1479 236.324 61.1212 235.536 62.1204 234.838C63.0677 234.184 64.0447 233.549 64.9065 232.78C65.4489 232.297 64.7542 231.443 64.145 231.792Z" fill="#D86D43"/>
<path d="M69.2973 241.569C68.4727 241.892 67.7334 242.42 66.9905 242.899C66.2029 243.411 65.4006 243.902 64.639 244.444C63.9072 244.964 64.5647 246.153 65.3597 245.67C66.1621 245.187 66.931 244.645 67.7111 244.121C68.4429 243.638 69.2416 243.174 69.8657 242.542C70.2446 242.156 69.862 241.346 69.2973 241.569Z" fill="#D86D43"/>
<path d="M81.5003 259.574C81.5003 259.574 101.326 239.752 88.1125 238.103C74.8954 236.446 68.2869 248.564 68.2869 248.564C68.2869 248.564 82.5998 229.295 69.94 227.093C57.2764 224.89 59.4755 261.777 59.4755 261.777L81.5003 259.574Z" fill="#00B3A6"/>
<path d="M59.795 257.921C59.795 257.921 65.8463 222.133 50.9799 223.237C36.1135 224.336 40.5229 240.306 40.5229 240.306C40.5229 240.306 35.5637 218.827 26.2026 224.332C16.8451 229.838 30.612 246.911 30.612 246.911C30.612 246.911 11.8934 238.099 14.646 245.807C17.3986 253.512 33.3646 261.777 33.3646 261.777L59.795 257.921Z" fill="#017374"/>
<path d="M34.2487 267.03H76.8494C82.975 267.03 87.9454 262.063 87.9454 255.938H23.1528C23.1528 262.063 28.1231 267.03 34.2487 267.03Z" fill="#E9D0C9"/>
<path d="M44.52 258.174C44.52 253.894 47.9895 245.417 52.2689 245.417C56.552 245.417 60.0253 253.894 60.0253 258.174C60.0253 262.453 56.552 265.923 52.2689 265.923C47.9895 265.923 44.52 262.453 44.52 258.174Z" fill="#F1E6E1"/>
<path d="M62.9191 258.174C62.9191 253.894 66.3961 245.417 70.6755 245.417C74.9549 245.417 78.4245 253.894 78.4245 258.174C78.4245 262.453 74.9549 265.923 70.6755 265.923C66.3961 265.923 62.9191 262.453 62.9191 258.174Z" fill="#F1E6E1"/>
<path d="M81.3183 258.174C81.3183 253.894 84.7953 245.417 89.0746 245.417C93.354 245.417 96.8236 253.894 96.8236 258.174C96.8236 262.453 93.354 265.923 89.0746 265.923C84.7953 265.923 81.3183 262.453 81.3183 258.174Z" fill="#F1E6E1"/>
<path d="M97.4068 255.666H43.9962C42.6515 255.666 41.563 256.759 41.563 258.1C41.563 258.939 41.5482 259.775 41.5482 260.614C41.5482 261.016 41.5482 261.421 41.5556 261.822C41.5705 262.695 42.5697 262.39 43.1381 262.39C43.8253 262.39 44.4234 262.862 44.5831 263.531C45.0698 265.581 46.9011 267.034 49.0111 267.034H55.5825C57.6887 267.034 59.5201 265.581 60.0067 263.531C60.1665 262.862 60.7646 262.39 61.4518 262.39H61.5447C62.2319 262.39 62.83 262.862 62.9897 263.531C63.4763 265.581 65.3077 267.034 67.4177 267.034H73.9891C76.0953 267.034 77.9267 265.581 78.4133 263.531C78.573 262.862 79.1711 262.39 79.8583 262.39H79.9512C80.6384 262.39 81.2365 262.862 81.3963 263.531C81.8829 265.581 83.7143 267.034 85.8205 267.034H92.3956C94.5019 267.034 96.3332 265.581 96.8199 263.531C96.9796 262.862 97.5777 262.39 98.2649 262.39C98.6438 262.39 99.1639 262.398 99.5391 262.39C99.7137 262.386 99.84 262.398 99.8363 262.193C99.8288 261.759 99.84 260.819 99.84 260.362V258.1C99.84 256.759 98.7516 255.666 97.4068 255.666Z" fill="#23036A"/>
<path d="M44.1634 261.008C61.9384 260.577 79.7172 260.949 97.4922 260.518C98.0197 260.503 98.0197 259.686 97.4922 259.697C79.7172 260.132 61.9384 259.756 44.1634 260.187C43.6359 260.202 43.6359 261.023 44.1634 261.008Z" fill="#FFFEFF"/>
<path d="M234.609 226.964L228.624 233.421V267.259H242.404V233.421L234.609 226.964Z" fill="#F4856D"/>
<path d="M234.607 225.439V226.964L240.058 233.418V267.259H252.643V233.418L247.208 226.964V225.439H234.607Z" fill="#FBBB7B"/>
<path d="M240.173 233.795C244.01 233.84 247.85 233.748 251.688 233.795C252.031 233.798 252.031 233.265 251.688 233.262C247.85 233.214 244.01 233.306 240.173 233.262C239.829 233.256 239.827 233.79 240.173 233.795Z" fill="#F27253"/>
<path d="M235.59 227.347C239.254 227.335 242.918 227.333 246.582 227.324C246.926 227.321 246.926 226.788 246.582 226.791C242.918 226.799 239.254 226.805 235.59 226.813C235.246 226.813 235.243 227.347 235.59 227.347Z" fill="#F27253"/>
<path d="M261.647 254.58C261.854 252.644 261.013 250.709 259.332 249.499C258.659 249.013 257.81 248.603 256.743 248.363C252.47 247.399 250.439 249.952 250.171 250.385C249.903 250.818 247.554 252.99 248.462 257.043C249.37 261.093 251.88 261.916 253.59 262.062C255.302 262.204 258.72 262.204 260.161 259.987C261.077 258.579 261.477 256.158 261.647 254.58Z" fill="#D04943"/>
<path d="M255.768 249.293C256.128 249.343 256.41 249.539 256.69 249.726C257.008 248.916 257.424 248.078 258.008 247.452C258.028 247.374 258.075 247.304 258.145 247.271C258.189 247.254 258.234 247.232 258.273 247.204C258.606 247.005 258.921 247.424 258.748 247.723C258.296 248.505 257.899 249.304 257.53 250.125C257.558 250.128 257.586 250.133 257.617 250.136C257.639 250.092 257.684 250.055 257.743 250.047C257.812 249.966 257.947 249.927 258.036 249.969C258.223 250.055 258.245 250.17 258.265 250.365C258.276 250.502 258.243 250.65 258.103 250.714C257.793 250.854 257.441 250.865 257.097 250.787C256.938 250.86 256.743 250.837 256.586 250.689C256.539 250.639 256.505 250.594 256.477 250.544C256.064 250.301 255.729 249.93 255.592 249.499C255.559 249.399 255.665 249.279 255.768 249.293Z" fill="#636C57"/>
<path d="M247.906 251.829C247.51 249.921 246.116 248.343 244.144 247.704C243.357 247.452 242.427 247.318 241.335 247.419C236.969 247.813 235.822 250.865 235.701 251.362C235.579 251.859 234.006 254.644 236.115 258.222C238.223 261.796 240.868 261.808 242.538 261.422C244.208 261.034 247.465 259.984 248.155 257.431C248.596 255.808 248.23 253.384 247.906 251.829Z" fill="#EE9729"/>
<path d="M240.689 248.606C241.047 248.541 241.377 248.639 241.701 248.734C241.754 247.863 241.893 246.936 242.256 246.162C242.251 246.084 242.273 246 242.329 245.952C242.368 245.919 242.404 245.88 242.435 245.844C242.689 245.55 243.116 245.858 243.044 246.193C242.851 247.075 242.723 247.955 242.622 248.849C242.65 248.843 242.675 248.843 242.706 248.835C242.717 248.787 242.745 248.743 242.798 248.715C242.84 248.617 242.957 248.536 243.055 248.547C243.259 248.575 243.318 248.676 243.393 248.854C243.446 248.98 243.46 249.134 243.345 249.24C243.091 249.466 242.765 249.589 242.413 249.617C242.284 249.734 242.089 249.77 241.896 249.678C241.835 249.647 241.793 249.611 241.751 249.575C241.282 249.471 240.849 249.22 240.589 248.854C240.528 248.77 240.586 248.622 240.689 248.606Z" fill="#7D886E"/>
<path d="M273.796 249.418C272.52 247.949 270.534 247.248 268.498 247.651C267.685 247.815 266.808 248.153 265.901 248.77C262.284 251.242 262.77 254.471 262.907 254.959C263.041 255.451 263.032 258.652 266.616 260.749C270.199 262.844 272.508 261.565 273.779 260.411C275.05 259.258 277.379 256.755 276.74 254.189C276.332 252.558 274.838 250.619 273.796 249.418Z" fill="#EE9729"/>
<path d="M265.92 250.119C266.202 249.89 266.535 249.818 266.861 249.74C266.487 248.955 266.157 248.081 266.096 247.226C266.054 247.159 266.037 247.075 266.06 247.003C266.079 246.955 266.09 246.91 266.096 246.857C266.18 246.48 266.702 246.542 266.8 246.869C267.065 247.734 267.381 248.564 267.727 249.393C267.749 249.374 267.775 249.36 267.794 249.34C267.783 249.29 267.786 249.24 267.819 249.187C267.808 249.08 267.861 248.955 267.956 248.916C268.146 248.843 268.249 248.902 268.403 249.022C268.512 249.106 268.601 249.237 268.551 249.379C268.442 249.703 268.21 249.969 267.92 250.167C267.861 250.332 267.713 250.455 267.498 250.469C267.431 250.471 267.372 250.463 267.317 250.449C266.858 250.586 266.356 250.58 265.951 250.39C265.856 250.343 265.839 250.186 265.92 250.119Z" fill="#7D886E"/>
<path d="M240.363 267.259H270.235C274.53 267.259 278.013 263.774 278.013 259.478H232.585C232.585 263.774 236.065 267.259 240.363 267.259Z" fill="#76533B"/>
</g>
</g>
<defs>
<clipPath id="clip0_10_819">
<rect width="295" height="295" fill="white"/>
</clipPath>
</defs>
</svg>
