<svg width="36" height="24" viewBox="0 0 36 24" fill="none" xmlns="http://www.w3.org/2000/svg">
<rect width="36" height="24" rx="12" fill="#818181" fill-opacity="0.06"/>
<g clip-path="url(#clip0_7_474)">
<path fill-rule="evenodd" clip-rule="evenodd" d="M12.7483 7.81537C13.0227 7.57352 13.3314 7.29982 13.6752 6.98138C13.8965 6.8027 14.1234 6.60942 14.3581 6.4095L14.3582 6.40948C14.8125 6.0225 15.296 5.61065 15.8246 5.23169C16.6345 4.65101 17.3677 4.29167 17.9653 4.29167C18.5649 4.29167 19.3082 4.65098 20.129 5.23079C20.6817 5.62128 21.1941 6.05345 21.6701 6.4549L21.6701 6.45491C21.8886 6.63919 22.0994 6.81701 22.3029 6.98135C22.6467 7.2998 22.9554 7.5735 23.2297 7.81536L23.3429 7.91501L23.343 7.91517C23.5756 8.12002 23.7782 8.29838 23.9601 8.46632C24.3811 8.85501 24.6469 9.14848 24.835 9.4767C25.2119 10.1347 25.352 11.0574 25.352 13.4275C25.352 15.1409 25.2494 16.3709 25.0177 17.2627C24.7902 18.1382 24.451 18.6399 24.0018 18.9624C23.5326 19.2992 22.8628 19.4998 21.8541 19.6037C20.8464 19.7076 19.5895 19.7083 17.9886 19.7083C16.3878 19.7083 15.1309 19.7076 14.1232 19.6037C13.1145 19.4998 12.4447 19.2992 11.9755 18.9624C11.5262 18.6399 11.1871 18.1382 10.9596 17.2627C10.7279 16.3709 10.6253 15.1409 10.6253 13.4275C10.6253 11.0575 10.7656 10.1348 11.1427 9.4768C11.3308 9.14856 11.5968 8.85507 12.0179 8.46636C12.1997 8.29853 12.4021 8.1203 12.6345 7.91563L12.7483 7.81537ZM17.9653 3.04167C16.9437 3.04167 15.9298 3.61816 15.0962 4.21581C14.5295 4.62212 13.9619 5.10471 13.4836 5.51139L13.4836 5.51139C13.2573 5.70378 13.051 5.87918 12.8742 6.02148C12.8629 6.03062 12.8518 6.04015 12.8411 6.05007C12.5028 6.36385 12.1983 6.63391 11.9218 6.87763L11.8097 6.97634L11.8097 6.97639C11.5784 7.18003 11.3635 7.36927 11.17 7.54786C10.7206 7.96275 10.3422 8.35957 10.0581 8.85529C9.49085 9.8452 9.37531 11.105 9.37531 13.4275C9.37531 15.167 9.47682 16.5267 9.74978 17.5771C10.027 18.6439 10.4932 19.4371 11.2466 19.9778C11.98 20.5043 12.91 20.7353 13.995 20.8471C15.0739 20.9583 16.3941 20.9583 17.9577 20.9583H18.0196C19.5832 20.9583 20.9034 20.9583 21.9823 20.8471C23.0673 20.7353 23.9973 20.5043 24.7307 19.9778C25.484 19.4371 25.9503 18.6439 26.2275 17.5771C26.5005 16.5267 26.602 15.167 26.602 13.4275C26.602 11.1051 26.4866 9.84528 25.9196 8.85539C25.6356 8.35964 25.2574 7.96281 24.808 7.5479C24.6143 7.36909 24.3992 7.17961 24.1676 6.97569L24.0563 6.87765C23.7798 6.63392 23.4753 6.36385 23.137 6.05007C23.1263 6.04019 23.1153 6.03068 23.104 6.02156C22.9352 5.88563 22.742 5.72278 22.5312 5.54519L22.5312 5.54513L22.5312 5.54513C22.0371 5.12874 21.4468 4.63133 20.8502 4.20984C20.0062 3.61361 18.9841 3.04167 17.9653 3.04167ZM15.5659 14.8215C15.2207 14.8215 14.9409 15.1013 14.9409 15.4465C14.9409 15.7916 15.2207 16.0715 15.5659 16.0715H20.4117C20.7569 16.0715 21.0367 15.7916 21.0367 15.4465C21.0367 15.1013 20.7569 14.8215 20.4117 14.8215H15.5659Z" fill="black" fill-opacity="0.38"/>
</g>
<defs>
<clipPath id="clip0_7_474">
<rect width="20" height="20" fill="white" transform="translate(8 2)"/>
</clipPath>
</defs>
</svg>
