<svg width="36" height="24" viewBox="0 0 36 24" fill="none" xmlns="http://www.w3.org/2000/svg">
<rect width="36" height="24" rx="12" fill="#818181" fill-opacity="0.06"/>
<path fill-rule="evenodd" clip-rule="evenodd" d="M11.4005 11.5262C11.4005 8.12623 14.2181 5.36999 17.6938 5.36999C21.1695 5.36999 23.9871 8.12623 23.9871 11.5262C23.9871 14.9262 21.1695 17.6825 17.6938 17.6825C14.2181 17.6825 11.4005 14.9262 11.4005 11.5262ZM17.6938 4C13.4446 4 10 7.3696 10 11.5262C10 15.6828 13.4446 19.0524 17.6938 19.0524C19.4736 19.0524 21.1123 18.4612 22.4158 17.4686L24.8053 19.8C25.0791 20.0672 25.5224 20.0666 25.7955 19.7987C26.0687 19.5309 26.0681 19.0972 25.7943 18.83L23.4391 16.5321C24.6511 15.202 25.3876 13.4482 25.3876 11.5262C25.3876 7.3696 21.9429 4 17.6938 4Z" fill="black" fill-opacity="0.38"/>
</svg>
