<svg width="36" height="24" viewBox="0 0 36 24" fill="none" xmlns="http://www.w3.org/2000/svg">
<rect width="36" height="24" rx="12" fill="#818181" fill-opacity="0.06"/>
<path fill-rule="evenodd" clip-rule="evenodd" d="M17.9752 3.45833C16.6407 3.45833 15.5318 3.5059 14.6323 3.68999C13.7215 3.8764 12.9708 4.2134 12.4068 4.83124C11.8495 5.44179 11.5394 6.25618 11.3616 7.26596C11.1842 8.27393 11.1285 9.53946 11.1285 11.1075C11.1285 11.7127 11.1275 12.2809 11.1265 12.8138C11.122 15.3344 11.1188 17.0672 11.2325 18.1974C11.3003 18.8717 11.4172 19.4441 11.6743 19.8552C11.8126 20.0763 11.9962 20.2594 12.2346 20.3814C12.4688 20.5012 12.716 20.5417 12.9527 20.5417C13.4933 20.5417 14.0176 20.2443 14.4407 19.9502C14.8538 19.6632 15.2887 19.2916 15.6999 18.9402L15.7972 18.857C16.2513 18.4694 16.6778 18.1116 17.078 17.8488C17.4932 17.5762 17.7851 17.4717 17.9752 17.4717C18.1653 17.4717 18.4572 17.5762 18.8723 17.8488C19.2726 18.1116 19.6991 18.4694 20.1532 18.857L20.2505 18.9402C20.6617 19.2916 21.0966 19.6632 21.5096 19.9502C21.9328 20.2443 22.457 20.5417 22.9977 20.5417C23.2343 20.5417 23.4816 20.5012 23.7157 20.3814C23.9542 20.2594 24.1378 20.0763 24.2761 19.8552C24.5332 19.4441 24.6501 18.8717 24.7179 18.1974C24.8315 17.0673 24.8284 15.3344 24.8238 12.8139V12.8138V12.8135C24.8229 12.2806 24.8219 11.7125 24.8219 11.1075C24.8219 9.53946 24.7662 8.27393 24.5887 7.26596C24.411 6.25618 24.1009 5.44179 23.5436 4.83124C22.9796 4.2134 22.2289 3.8764 21.3181 3.68999C20.4185 3.5059 19.3097 3.45833 17.9752 3.45833ZM12.3785 11.1075C12.3785 9.55178 12.4352 8.37742 12.5927 7.48266C12.7499 6.5897 12.9972 6.03852 13.33 5.67397C13.6561 5.3167 14.1282 5.06907 14.8829 4.91461C15.6489 4.75785 16.6484 4.70833 17.9752 4.70833C19.302 4.70833 20.3014 4.75785 21.0674 4.91461C21.8221 5.06907 22.2942 5.3167 22.6204 5.67397C22.9531 6.03852 23.2005 6.5897 23.3577 7.48266C23.5152 8.37742 23.5719 9.55178 23.5719 11.1075C23.5719 11.7272 23.5728 12.3044 23.5737 12.8419V12.8425V12.8425C23.578 15.3639 23.5808 17.0117 23.4742 18.0724C23.4084 18.7261 23.3087 19.0446 23.2163 19.1924C23.1797 19.2507 23.1554 19.264 23.1464 19.2686C23.1332 19.2754 23.0935 19.2917 22.9977 19.2917C22.8738 19.2917 22.6282 19.2053 22.2229 18.9237C21.8636 18.6741 21.475 18.3421 21.0482 17.9776L20.9647 17.9063C20.5196 17.5264 20.0349 17.1167 19.5584 16.8039C19.0968 16.5008 18.5463 16.2217 17.9752 16.2217C17.4041 16.2217 16.8536 16.5008 16.392 16.8039C15.9155 17.1167 15.4307 17.5264 14.9857 17.9063L14.9021 17.9776L14.9021 17.9776C14.4754 18.3421 14.0867 18.6741 13.7275 18.9237C13.3222 19.2053 13.0766 19.2917 12.9527 19.2917C12.8568 19.2917 12.8172 19.2754 12.804 19.2686C12.795 19.264 12.7706 19.2507 12.7341 19.1924C12.6417 19.0446 12.542 18.7261 12.4762 18.0724C12.3696 17.0117 12.3724 15.3639 12.3766 12.8425V12.8424C12.3775 12.3048 12.3785 11.7274 12.3785 11.1075ZM15.1187 9.05641C14.7735 9.05641 14.4937 9.33624 14.4937 9.68141C14.4937 10.0266 14.7735 10.3064 15.1187 10.3064H20.8312C21.1764 10.3064 21.4562 10.0266 21.4562 9.68141C21.4562 9.33624 21.1764 9.05641 20.8312 9.05641H15.1187Z" fill="black" fill-opacity="0.38"/>
</svg>
